<svg xmlns="http://www.w3.org/2000/svg" xmlns:xlink="http://www.w3.org/1999/xlink" contentStyleType="text/css" height="663px" preserveAspectRatio="none" style="width:1735px;height:663px;background:#FFFFFF;" version="1.1" viewBox="0 0 1735 663" width="1735px" zoomAndPan="magnify"><defs/><g><!--cluster Interface Utilisateur--><g id="cluster_Interface Utilisateur"><path d="M8.5,131.5 L169.2695,131.5 A3.75,3.75 0 0 1 171.7695,134 L178.7695,153.7969 L446.5,153.7969 A2.5,2.5 0 0 1 449,156.2969 L449,228 A2.5,2.5 0 0 1 446.5,230.5 L8.5,230.5 A2.5,2.5 0 0 1 6,228 L6,134 A2.5,2.5 0 0 1 8.5,131.5 " fill="none" style="stroke:#000000;stroke-width:1.5;"/><line style="stroke:#000000;stroke-width:1.5;" x1="6" x2="178.7695" y1="153.7969" y2="153.7969"/><text fill="#000000" font-family="sans-serif" font-size="14" font-weight="bold" lengthAdjust="spacing" textLength="159.7695" x="10" y="146.4951">Interface Utilisateur</text></g><!--cluster Ex?cution du jeu--><g id="cluster_Ex&#233;cution du jeu"><path d="M475.5,139.5 L607.9277,139.5 A3.75,3.75 0 0 1 610.4277,142 L617.4277,161.7969 L917.5,161.7969 A2.5,2.5 0 0 1 920,164.2969 L920,510 A2.5,2.5 0 0 1 917.5,512.5 L475.5,512.5 A2.5,2.5 0 0 1 473,510 L473,142 A2.5,2.5 0 0 1 475.5,139.5 " fill="none" style="stroke:#000000;stroke-width:1.5;"/><line style="stroke:#000000;stroke-width:1.5;" x1="473" x2="617.4277" y1="161.7969" y2="161.7969"/><text fill="#000000" font-family="sans-serif" font-size="14" font-weight="bold" lengthAdjust="spacing" textLength="131.4277" x="477" y="154.4951">Ex&#233;cution du jeu</text></g><!--cluster Observation--><g id="cluster_Observation"><path d="M596.5,558.5 L693.8047,558.5 A3.75,3.75 0 0 1 696.3047,561 L703.3047,580.7969 L1293.5,580.7969 A2.5,2.5 0 0 1 1296,583.2969 L1296,654 A2.5,2.5 0 0 1 1293.5,656.5 L596.5,656.5 A2.5,2.5 0 0 1 594,654 L594,561 A2.5,2.5 0 0 1 596.5,558.5 " fill="none" style="stroke:#000000;stroke-width:1.5;"/><line style="stroke:#000000;stroke-width:1.5;" x1="594" x2="703.3047" y1="580.7969" y2="580.7969"/><text fill="#000000" font-family="sans-serif" font-size="14" font-weight="bold" lengthAdjust="spacing" textLength="96.3047" x="598" y="573.4951">Observation</text></g><!--cluster Validation--><g id="cluster_Validation"><path d="M946.5,282.5 L1027.9248,282.5 A3.75,3.75 0 0 1 1030.4248,285 L1037.4248,304.7969 L1149.5,304.7969 A2.5,2.5 0 0 1 1152,307.2969 L1152,504.5 A2.5,2.5 0 0 1 1149.5,507 L946.5,507 A2.5,2.5 0 0 1 944,504.5 L944,285 A2.5,2.5 0 0 1 946.5,282.5 " fill="none" style="stroke:#000000;stroke-width:1.5;"/><line style="stroke:#000000;stroke-width:1.5;" x1="944" x2="1037.4248" y1="304.7969" y2="304.7969"/><text fill="#000000" font-family="sans-serif" font-size="14" font-weight="bold" lengthAdjust="spacing" textLength="80.4248" x="948" y="297.4951">Validation</text></g><!--cluster Tests--><g id="cluster_Tests"><path d="M946.5,128.5 L989.9033,128.5 A3.75,3.75 0 0 1 992.4033,131 L999.4033,150.7969 L1725.5,150.7969 A2.5,2.5 0 0 1 1728,153.2969 L1728,231 A2.5,2.5 0 0 1 1725.5,233.5 L946.5,233.5 A2.5,2.5 0 0 1 944,231 L944,131 A2.5,2.5 0 0 1 946.5,128.5 " fill="none" style="stroke:#000000;stroke-width:1.5;"/><line style="stroke:#000000;stroke-width:1.5;" x1="944" x2="999.4033" y1="150.7969" y2="150.7969"/><text fill="#000000" font-family="sans-serif" font-size="14" font-weight="bold" lengthAdjust="spacing" textLength="42.4033" x="948" y="143.4951">Tests</text></g><g id="elem_UC1"><ellipse cx="100.8285" cy="190.6657" fill="#F1F1F1" rx="78.8285" ry="18.1657" style="stroke:#181818;stroke-width:0.5;"/><text fill="#000000" font-family="sans-serif" font-size="14" lengthAdjust="spacing" textLength="115.6641" x="40.8774" y="194.1764">Afficher le menu</text></g><g id="elem_UC2"><ellipse cx="324.0478" cy="190.7096" fill="#F1F1F1" rx="109.0478" ry="24.2096" style="stroke:#181818;stroke-width:0.5;"/><text fill="#000000" font-family="sans-serif" font-size="14" lengthAdjust="spacing" textLength="183.8184" x="232.1386" y="193.5562">Configurer les param&#232;tres</text></g><g id="elem_UC3"><ellipse cx="657.9996" cy="190.6999" fill="#F1F1F1" rx="68.9996" ry="16.1999" style="stroke:#181818;stroke-width:0.5;"/><text fill="#000000" font-family="sans-serif" font-size="14" lengthAdjust="spacing" textLength="90.0977" x="609.9507" y="194.4475">Lancer le jeu</text></g><g id="elem_UC4"><ellipse cx="657.7862" cy="337.3572" fill="#F1F1F1" rx="92.2862" ry="20.8572" style="stroke:#181818;stroke-width:0.5;"/><text fill="#000000" font-family="sans-serif" font-size="14" lengthAdjust="spacing" textLength="146.8975" x="584.3375" y="340.2039">Mettre &#224; jour la grille</text></g><g id="elem_UC5"><ellipse cx="592.7579" cy="473.6516" fill="#F1F1F1" rx="103.7579" ry="23.1516" style="stroke:#181818;stroke-width:0.5;"/><text fill="#000000" font-family="sans-serif" font-size="14" lengthAdjust="spacing" textLength="172.3066" x="506.6046" y="476.4983">Notifier les observateurs</text></g><g id="elem_UC6"><ellipse cx="818.1159" cy="473.6232" fill="#F1F1F1" rx="86.1159" ry="19.6232" style="stroke:#181818;stroke-width:0.5;"/><text fill="#000000" font-family="sans-serif" font-size="14" lengthAdjust="spacing" textLength="132.8906" x="751.6706" y="476.4699">Afficher une erreur</text></g><g id="elem_UC7"><ellipse cx="703.9477" cy="617.1895" fill="#F1F1F1" rx="93.9477" ry="21.1895" style="stroke:#181818;stroke-width:0.5;"/><text fill="#000000" font-family="sans-serif" font-size="14" lengthAdjust="spacing" textLength="150.623" x="628.6362" y="620.0362">Observer sur Console</text></g><g id="elem_UC8"><ellipse cx="932.8905" cy="616.8781" fill="#F1F1F1" rx="99.8905" ry="22.3781" style="stroke:#181818;stroke-width:0.5;"/><text fill="#000000" font-family="sans-serif" font-size="14" lengthAdjust="spacing" textLength="163.8164" x="850.9823" y="619.7248">Observer en Graphique</text></g><g id="elem_UC9"><ellipse cx="1173.8233" cy="616.9647" fill="#F1F1F1" rx="105.3233" ry="23.4647" style="stroke:#181818;stroke-width:0.5;"/><text fill="#000000" font-family="sans-serif" font-size="14" lengthAdjust="spacing" textLength="175.7246" x="1085.961" y="619.8113">Observer dans un Fichier</text></g><g id="elem_UC10"><ellipse cx="1048.1793" cy="337.5359" fill="#F1F1F1" rx="88.1793" ry="20.0359" style="stroke:#181818;stroke-width:0.5;"/><text fill="#000000" font-family="sans-serif" font-size="14" lengthAdjust="spacing" textLength="137.6074" x="979.3756" y="340.3825">Valider les donn&#233;es</text></g><g id="elem_UC11"><ellipse cx="1048.0083" cy="473.5017" fill="#F1F1F1" rx="75.5083" ry="17.5017" style="stroke:#181818;stroke-width:0.5;"/><text fill="#000000" font-family="sans-serif" font-size="14" lengthAdjust="spacing" textLength="107.3174" x="991.3497" y="477.2492">V&#233;rifier la grille</text></g><g id="elem_UC12"><ellipse cx="1060.9584" cy="190.4917" fill="#F1F1F1" rx="100.4584" ry="22.4917" style="stroke:#181818;stroke-width:0.5;"/><text fill="#000000" font-family="sans-serif" font-size="14" lengthAdjust="spacing" textLength="165.0674" x="978.4247" y="193.3384">Tester la logique de jeu</text></g><g id="elem_UC13"><ellipse cx="1319.0832" cy="190.4166" fill="#F1F1F1" rx="122.5832" ry="26.9166" style="stroke:#181818;stroke-width:0.5;"/><text fill="#000000" font-family="sans-serif" font-size="14" lengthAdjust="spacing" textLength="212.8574" x="1212.6545" y="193.2633">Tester la validation de la grille</text></g><g id="elem_UC14"><ellipse cx="1593.9632" cy="190.3926" fill="#F1F1F1" rx="117.4632" ry="25.8926" style="stroke:#181818;stroke-width:0.5;"/><text fill="#000000" font-family="sans-serif" font-size="14" lengthAdjust="spacing" textLength="201.9336" x="1492.9964" y="193.2393">Tester la gestion des fichiers</text></g><!--entity User--><g id="elem_User"><ellipse cx="324.0049" cy="14" fill="#F1F1F1" rx="8" ry="8" style="stroke:#181818;stroke-width:0.5;"/><path d="M324.0049,22 L324.0049,49 M311.0049,30 L337.0049,30 M324.0049,49 L311.0049,64 M324.0049,49 L337.0049,64 " fill="none" style="stroke:#181818;stroke-width:0.5;"/><text fill="#000000" font-family="sans-serif" font-size="14" lengthAdjust="spacing" textLength="72.0098" x="288" y="78.4951">Utilisateur</text></g><!--entity UnitaryTest--><g id="elem_UnitaryTest"><ellipse cx="1318.8677" cy="14" fill="#F1F1F1" rx="8" ry="8" style="stroke:#181818;stroke-width:0.5;"/><path d="M1318.8677,22 L1318.8677,49 M1305.8677,30 L1331.8677,30 M1318.8677,49 L1305.8677,64 M1318.8677,49 L1331.8677,64 " fill="none" style="stroke:#181818;stroke-width:0.5;"/><text fill="#000000" font-family="sans-serif" font-size="14" lengthAdjust="spacing" textLength="89.7354" x="1274" y="78.4951">Test Unitaire</text></g><!--entity Observer--><g id="elem_Observer"><ellipse cx="1212.0825" cy="444" fill="#F1F1F1" rx="8" ry="8" style="stroke:#181818;stroke-width:0.5;"/><path d="M1212.0825,452 L1212.0825,479 M1199.0825,460 L1225.0825,460 M1212.0825,479 L1199.0825,494 M1212.0825,479 L1225.0825,494 " fill="none" style="stroke:#181818;stroke-width:0.5;"/><text fill="#000000" font-family="sans-serif" font-size="14" lengthAdjust="spacing" textLength="87.165" x="1168.5" y="508.4951">Observateur</text></g><!--link User to UC1--><g id="link_User_UC1"><path d="M287.92,65.01 C262.23,79.87 227.07,100.75 197,120.5 C170.93,137.63 146.7802,155.1536 127.5602,169.4836 " fill="none" id="User-to-UC1" style="stroke:#181818;stroke-width:1;"/><polygon fill="#181818" points="122.75,173.07,132.3562,170.8972,126.7585,170.0814,127.5744,164.4836,122.75,173.07" style="stroke:#181818;stroke-width:1;"/></g><!--link User to UC2--><g id="link_User_UC2"><path d="M324,81.84 C324,108.52 324,137.59 324,160.34 " fill="none" id="User-to-UC2" style="stroke:#181818;stroke-width:1;"/><polygon fill="#181818" points="324,166.34,328,157.34,324,161.34,320,157.34,324,166.34" style="stroke:#181818;stroke-width:1;"/></g><!--link User to UC3--><g id="link_User_UC3"><path d="M360.06,60.16 C426.02,88.79 559.4863,146.7307 621.4963,173.6507 " fill="none" id="User-to-UC3" style="stroke:#181818;stroke-width:1;"/><polygon fill="#181818" points="627,176.04,620.3373,168.7869,622.4135,174.0489,617.1515,176.1252,627,176.04" style="stroke:#181818;stroke-width:1;"/></g><!--link UC3 to UC4--><g id="link_UC3_UC4"><path d="M658,206.74 C658,233.06 658,281.03 658,310.39 " fill="none" id="UC3-to-UC4" style="stroke:#181818;stroke-width:1;"/><polygon fill="#181818" points="658,316.39,662,307.39,658,311.39,654,307.39,658,316.39" style="stroke:#181818;stroke-width:1;"/><text fill="#000000" font-family="sans-serif" font-size="13" lengthAdjust="spacing" textLength="63.0068" x="659" y="262.5669">&#171;include&#187;</text></g><!--link UC4 to UC5--><g id="link_UC4_UC5"><path d="M648.27,358.56 C636.3,383.24 618.6697,419.5921 606.2797,445.1221 " fill="none" id="UC4-to-UC5" style="stroke:#181818;stroke-width:1;"/><polygon fill="#181818" points="603.66,450.52,611.1881,444.1696,605.8431,446.0217,603.9909,440.6767,603.66,450.52" style="stroke:#181818;stroke-width:1;"/><text fill="#000000" font-family="sans-serif" font-size="13" lengthAdjust="spacing" textLength="63.0068" x="634" y="401.5669">&#171;include&#187;</text></g><!--link UC4 to UC6--><g id="link_UC4_UC6"><path d="M681.27,357.98 C712.21,383.9 761.88,425.4978 791.9,450.6378 " fill="none" id="UC4-to-UC6" style="stroke:#181818;stroke-width:1;"/><polygon fill="#181818" points="796.5,454.49,792.1681,445.6449,792.6667,451.2798,787.0318,451.7783,796.5,454.49" style="stroke:#181818;stroke-width:1;"/><text fill="#000000" font-family="sans-serif" font-size="13" lengthAdjust="spacing" textLength="61.1851" x="739" y="401.5669">&#171;extend&#187;</text></g><!--link UC5 to UC7--><g id="link_UC5_UC7"><path d="M610.1,496.3 C631.51,523.59 664.1569,565.2091 684.7869,591.5091 " fill="none" id="UC5-to-UC7" style="stroke:#181818;stroke-width:1;"/><polygon fill="#181818" points="688.49,596.23,686.0826,586.6799,685.4041,592.2959,679.7881,591.6174,688.49,596.23" style="stroke:#181818;stroke-width:1;"/></g><!--link UC5 to UC8--><g id="link_UC5_UC8"><path d="M641.98,493.89 C664.15,502.42 690.76,512.34 715,520.5 C759.38,535.44 772.86,532.28 816,550.5 C846.02,563.18 873.0817,578.449 896.0817,592.519 " fill="none" id="UC5-to-UC8" style="stroke:#181818;stroke-width:1;"/><polygon fill="#181818" points="901.2,595.65,895.61,587.5413,896.9348,593.0408,891.4352,594.3656,901.2,595.65" style="stroke:#181818;stroke-width:1;"/></g><!--link UC5 to UC9--><g id="link_UC5_UC9"><path d="M637.01,494.41 C659.82,503.87 688.41,514.42 715,520.5 C861.15,553.92 907.3,507.74 1051,550.5 C1083.93,560.3 1113.0886,576.1895 1137.0586,591.2395 " fill="none" id="UC5-to-UC9" style="stroke:#181818;stroke-width:1;"/><polygon fill="#181818" points="1142.14,594.43,1136.6448,586.2567,1137.9055,591.7713,1132.3909,593.0319,1142.14,594.43" style="stroke:#181818;stroke-width:1;"/></g><!--link UC3 to UC10--><g id="link_UC3_UC10"><path d="M701.32,203.15 C753.83,217.74 844.64,244.49 920,274.5 C953.03,287.65 984.072,302.871 1009.582,316.081 " fill="none" id="UC3-to-UC10" style="stroke:#181818;stroke-width:1;"/><polygon fill="#181818" points="1014.91,318.84,1008.7573,311.1494,1010.47,316.5408,1005.0786,318.2535,1014.91,318.84" style="stroke:#181818;stroke-width:1;"/><text fill="#000000" font-family="sans-serif" font-size="13" lengthAdjust="spacing" textLength="63.0068" x="900" y="262.5669">&#171;include&#187;</text></g><!--link UC10 to UC11--><g id="link_UC10_UC11"><path d="M1048,357.7 C1048,384.04 1048,424.95 1048,449.87 " fill="none" id="UC10-to-UC11" style="stroke:#181818;stroke-width:1;"/><polygon fill="#181818" points="1048,455.87,1052,446.87,1048,450.87,1044,446.87,1048,455.87" style="stroke:#181818;stroke-width:1;"/><text fill="#000000" font-family="sans-serif" font-size="13" lengthAdjust="spacing" textLength="63.0068" x="1049" y="401.5669">&#171;include&#187;</text></g><!--link UC10 to UC6--><g id="link_UC10_UC6"><path d="M1017.46,356.29 C973.22,382.07 897.0143,426.4696 853.1243,452.0396 " fill="none" id="UC10-to-UC6" style="stroke:#181818;stroke-width:1;"/><polygon fill="#181818" points="847.94,455.06,857.7301,453.9857,852.2603,452.543,853.7029,447.0732,847.94,455.06" style="stroke:#181818;stroke-width:1;"/><text fill="#000000" font-family="sans-serif" font-size="13" lengthAdjust="spacing" textLength="61.1851" x="961" y="401.5669">&#171;extend&#187;</text></g><!--link UnitaryTest to UC12--><g id="link_UnitaryTest_UC12"><path d="M1273.72,68.61 C1246.21,83.38 1210.44,102.78 1179,120.5 C1150.47,136.58 1123.5727,152.3128 1100.0827,166.2228 " fill="none" id="UnitaryTest-to-UC12" style="stroke:#181818;stroke-width:1;"/><polygon fill="#181818" points="1094.92,169.28,1104.7022,168.136,1099.2223,166.7323,1100.6259,161.2524,1094.92,169.28" style="stroke:#181818;stroke-width:1;"/></g><!--link UnitaryTest to UC13--><g id="link_UnitaryTest_UC13"><path d="M1319,81.84 C1319,107.35 1319,134.52 1319,157.26 " fill="none" id="UnitaryTest-to-UC13" style="stroke:#181818;stroke-width:1;"/><polygon fill="#181818" points="1319,163.26,1323,154.26,1319,158.26,1315,154.26,1319,163.26" style="stroke:#181818;stroke-width:1;"/></g><!--link UnitaryTest to UC14--><g id="link_UnitaryTest_UC14"><path d="M1364.1,68.28 C1415.45,95.36 1493.4926,136.5116 1544.4726,163.3916 " fill="none" id="UnitaryTest-to-UC14" style="stroke:#181818;stroke-width:1;"/><polygon fill="#181818" points="1549.78,166.19,1543.6845,158.4541,1545.3571,163.858,1539.9532,165.5306,1549.78,166.19" style="stroke:#181818;stroke-width:1;"/></g><!--link Observer to UC7--><g id="link_Observer_UC7"><path d="M1169.51,511.51 C1163.89,515.04 1157.99,518.16 1152,520.5 C1012.3,574.93 958.82,504.89 816,550.5 C784.03,560.71 756.2292,577.7563 734.4892,593.1263 " fill="none" id="Observer-to-UC7" style="stroke:#181818;stroke-width:1;"/><polygon fill="#181818" points="729.59,596.59,739.248,594.6606,733.6727,593.7036,734.6297,588.1282,729.59,596.59" style="stroke:#181818;stroke-width:1;"/></g><!--link Observer to UC8--><g id="link_Observer_UC8"><path d="M1168.31,510.82 C1163,514.37 1157.5,517.7 1152,520.5 C1110.28,541.77 1094.17,532.36 1051,550.5 C1020.76,563.21 993.4303,578.4887 970.2303,592.5587 " fill="none" id="Observer-to-UC8" style="stroke:#181818;stroke-width:1;"/><polygon fill="#181818" points="965.1,595.67,974.8696,594.4232,969.3752,593.0772,970.7212,587.5828,965.1,595.67" style="stroke:#181818;stroke-width:1;"/></g><!--link Observer to UC9--><g id="link_Observer_UC9"><path d="M1202.02,511.68 C1195.07,537.55 1187.5748,565.435 1181.6748,587.425 " fill="none" id="Observer-to-UC9" style="stroke:#181818;stroke-width:1;"/><polygon fill="#181818" points="1180.12,593.22,1186.3156,585.564,1181.4157,588.3908,1178.5889,583.4909,1180.12,593.22" style="stroke:#181818;stroke-width:1;"/></g><!--SRC=[TLJBJiCm4BpdArQvLo9zG8jG9OG08V6u07UJR89Bi8iV28Ju5uxqE_9ZREoqk4xRaxqpkxCxteRbHYfuqAY0QKWV3A-vPWQjIXFcCS4DKv_tg8sZk8CBSeLhqjqJLNZlYlXBLoHPilo5LGZfbJ2eIfOZX2hmbG3zhCQSQOBECbVZj2nv_am5QuHN53QDM4F7EfEYv9LLZgTXoHHxRNwDGfqctu7q-KUpogtXKa1XOO6sBpjo1Q-PoBreIueeOqUvGKC2qFp0GbgYCgWKhskCsHF7lfM6bxphJ_uResFwuVROLY2WKix2S9ArjpHAVuQZm7wgeQazSaZBVdFJRIOAk5Hi-SpVR8ywswOMJ6Zg3YweJvfhkxj7LlDYJtFPWIlaA9qVXHIYMM7FYyplm6EpKfrv_oQ7SkqgwXrAmysY-jnQLkraKEnyrcmKqTytKxGPUnyu6qTv5PryaeRIs-FtqFsz1eDvcnHUXk5bH3pQGdyPmp6Sd72HrxR0-Jnf8nwPx4KE7O8V1aNXW4a770NdQN2UXOhqF75X2dLOjX-BL9FmSz5b3tS5Hxk2uoJPBDgwzoWmZGEpFm00]--></g></svg>